<svg width="280" height="111" viewBox="0 0 280 111" fill="none" xmlns="http://www.w3.org/2000/svg">
<path d="M227 18.6799C244.861 19.0436 262.524 23.3969 278.751 31.7108" stroke="black" stroke-width="2" stroke-miterlimit="10" stroke-linecap="round" stroke-dasharray="0.79 0.79"/>
<path d="M55 109.363C52.0504 109.788 49.0578 110 46.101 110H46.0974C28.8189 110 12.863 102.857 1 91" stroke="black" stroke-width="2" stroke-miterlimit="10" stroke-linecap="round" stroke-dasharray="0.79 0.79"/>
<path d="M210.342 11.4183C211.354 7.13501 208.702 2.84275 204.418 1.83135C200.135 0.819938 195.843 3.47238 194.831 7.75568C193.82 12.039 196.472 16.3311 200.756 17.3425C205.039 18.354 209.331 15.7016 210.342 11.4183Z" stroke="black" stroke-width="2" stroke-miterlimit="10" stroke-linecap="round"/>
<path d="M26.6242 6.37592L28 5M17 16L18.3724 14.6241M18.3724 6.37592L17 5M28 16L26.6242 14.6241" stroke="black" stroke-width="2" stroke-miterlimit="10" stroke-linecap="round"/>
</svg>
